<svg height="180" viewBox="0 -3 406.42731 406" width="150pt" xmlns="http://www.w3.org/2000/svg"><path d="m264.652344 128.332031c0 69.75-56.542969 126.296875-126.292969 126.296875s-126.292969-56.546875-126.292969-126.296875c0-69.746093 56.542969-126.292969 126.292969-126.292969s126.292969 56.546876 126.292969 126.292969zm0 0" fill="#4A6D8C"/><path d="m206.628906 384.332031c-5.65625 0-10.242187-4.582031-10.242187-10.238281v-341.332031c0-5.65625 4.585937-10.242188 10.242187-10.242188 5.652344 0 10.238282 4.585938 10.238282 10.242188v341.332031c0 5.65625-4.585938 10.238281-10.238282 10.238281zm0 0" fill="#D4F6ED"/><path d="m206.628906 391.160156c-9.414062 0-17.070312-7.65625-17.070312-17.066406v-341.332031c0-9.410157 7.65625-17.066407 17.070312-17.066407 9.410156 0 17.066406 7.65625 17.066406 17.066407v341.332031c0 9.410156-7.65625 17.066406-17.066406 17.066406zm0-361.8125c-1.882812 0-3.414062 1.527344-3.414062 3.414063v341.332031c0 1.882812 1.53125 3.414062 3.414062 3.414062 1.878906 0 3.410156-1.53125 3.410156-3.414062v-341.332031c0-1.886719-1.53125-3.414063-3.410156-3.414063zm0 0" fill="#273858"/><path d="m387.535156 203.425781c0-5.65625-4.585937-10.238281-10.242187-10.238281h-341.332031c-5.65625 0-10.242188 4.582031-10.242188 10.238281s4.585938 10.242188 10.242188 10.242188h341.332031c5.65625 0 10.242187-4.585938 10.242187-10.242188zm0 0" fill="#D4F6ED"/><path d="m377.292969 220.492188h-341.332031c-9.414063 0-17.066407-7.65625-17.066407-17.066407 0-9.410156 7.652344-17.066406 17.066407-17.066406h341.332031c9.414062 0 17.066406 7.65625 17.066406 17.066406 0 9.410157-7.652344 17.066407-17.066406 17.066407zm-341.332031-20.476563c-1.882813 0-3.414063 1.527344-3.414063 3.410156 0 1.886719 1.53125 3.414063 3.414063 3.414063h341.332031c1.882812 0 3.414062-1.527344 3.414062-3.414063 0-1.882812-1.53125-3.410156-3.414062-3.410156zm0 0" fill="#273858"/><path d="m336.464844 329.402344c-3.941406 4.058594-10.421875 4.160156-14.480469.21875l-244.976563-237.691406c-4.058593-3.9375-4.15625-10.417969-.21875-14.476563 3.941407-4.058594 10.421876-4.160156 14.480469-.21875l244.972657 237.691406c4.0625 3.933594 4.160156 10.417969.222656 14.476563zm0 0" fill="#D4F6ED"/><path d="m329.109375 339.335938c-4.460937 0-8.675781-1.703126-11.882813-4.8125l-244.972656-237.691407c-6.753906-6.558593-6.914062-17.386719-.359375-24.136719 3.171875-3.269531 7.425781-5.109374 11.984375-5.179687 4.761719-.03125 8.882813 1.640625 12.148438 4.816406l244.972656 237.691407c6.753906 6.554687 6.914062 17.382812.359375 24.132812-3.171875 3.269531-7.433594 5.109375-11.984375 5.179688-.09375 0-.183594 0-.265625 0zm-244.96875-258.164063c-.523437.046875-1.5625.113281-2.449219 1.03125-1.3125 1.351563-1.277344 3.515625.066406 4.828125l244.972657 237.6875c.890625.863281 1.808593.9375 2.433593.964844.527344-.007813 1.539063-.152344 2.394532-1.035156 1.3125-1.351563 1.28125-3.515626-.066406-4.828126l-244.972657-237.6875c-.859375-.832031-1.839843-.960937-2.378906-.960937zm0 0" fill="#273858"/><path d="m336.464844 77.453125c-3.941406-4.058594-10.421875-4.160156-14.480469-.21875l-244.976563 237.691406c-4.058593 3.9375-4.15625 10.417969-.21875 14.476563 3.941407 4.058594 10.421876 4.160156 14.480469.21875l244.972657-237.691406c4.0625-3.9375 4.160156-10.417969.222656-14.476563zm0 0" fill="#D4F6ED"/><path d="m84.144531 339.335938c-.085937 0-.171875 0-.265625 0-4.558594-.066407-8.8125-1.90625-11.984375-5.179688-6.554687-6.75-6.394531-17.574219.359375-24.128906l244.972656-237.691406c3.207032-3.113282 7.421876-4.816407 11.882813-4.816407h.265625c4.550781.070313 8.8125 1.910157 11.984375 5.179688 6.554687 6.75 6.394531 17.574219-.359375 24.128906l-244.972656 237.691406c-3.207032 3.113281-7.417969 4.816407-11.882813 4.816407zm244.96875-258.164063c-.539062 0-1.519531.128906-2.378906.960937l-244.972656 237.691407c-1.347657 1.308593-1.382813 3.472656-.066407 4.824219.886719.921874 1.890626 1.070312 2.445313 1.035156.539063 0 1.519531-.128906 2.382813-.964844l244.96875-237.6875c1.347656-1.3125 1.382812-3.472656.066406-4.828125-.882813-.914063-1.84375-.972656-2.445313-1.03125zm0 0" fill="#273858"/><path d="m206.628906 67.988281c-74.800781 0-135.4375 60.640625-135.4375 135.4375 0 74.800781 60.636719 135.4375 135.4375 135.4375 74.796875 0 135.433594-60.636719 135.433594-135.4375 0-74.796875-60.636719-135.4375-135.433594-135.4375zm0 226.097657c-50.070312 0-90.660156-40.589844-90.660156-90.660157 0-50.070312 40.589844-90.65625 90.660156-90.65625 50.066406 0 90.65625 40.589844 90.65625 90.65625 0 50.070313-40.589844 90.660157-90.65625 90.660157zm0 0" fill="#D4F6ED"/><path d="m206.628906 345.691406c-78.449218 0-142.269531-63.824218-142.269531-142.265625 0-78.441406 63.820313-142.261719 142.269531-142.261719 78.445313 0 142.265625 63.820313 142.265625 142.261719 0 78.441407-63.820312 142.265625-142.265625 142.265625zm0-270.875c-70.921875 0-128.613281 57.695313-128.613281 128.609375 0 70.917969 57.691406 128.609375 128.613281 128.609375 70.917969 0 128.609375-57.691406 128.609375-128.609375 0-70.914062-57.691406-128.609375-128.609375-128.609375zm0 226.097656c-53.753906 0-97.488281-43.734374-97.488281-97.488281 0-53.75 43.734375-97.484375 97.488281-97.484375 53.75 0 97.484375 43.734375 97.484375 97.484375 0 53.753907-43.734375 97.488281-97.484375 97.488281zm0-181.320312c-46.230468 0-83.835937 37.605469-83.835937 83.832031 0 46.226563 37.605469 83.835938 83.835937 83.835938 46.226563 0 83.832032-37.609375 83.832032-83.835938 0-46.226562-37.605469-83.832031-83.832032-83.832031zm0 0" fill="#273858"/><path d="m234.457031 203.425781c0 15.371094-12.460937 27.832031-27.828125 27.832031-15.371094 0-27.832031-12.460937-27.832031-27.832031 0-15.367187 12.460937-27.828125 27.832031-27.828125 15.367188 0 27.828125 12.460938 27.828125 27.828125zm0 0" fill="#D4F6ED"/><g fill="#273858"><path d="m206.628906 238.085938c-19.109375 0-34.65625-15.546876-34.65625-34.660157 0-19.109375 15.546875-34.65625 34.65625-34.65625 19.105469 0 34.652344 15.546875 34.652344 34.65625 0 19.113281-15.546875 34.660157-34.652344 34.660157zm0-55.664063c-11.582031 0-21.003906 9.425781-21.003906 21.003906 0 11.582031 9.421875 21.003907 21.003906 21.003907 11.578125 0 21-9.421876 21-21.003907 0-11.578125-9.421875-21.003906-21-21.003906zm0 0"/><path d="m278.308594 51.765625c-12.359375 0-22.414063-10.058594-22.414063-22.417969s10.054688-22.417968 22.414063-22.417968 22.410156 10.058593 22.410156 22.417968-10.050781 22.417969-22.410156 22.417969zm0-31.183594c-4.835938 0-8.761719 3.933594-8.761719 8.765625 0 4.832032 3.925781 8.761719 8.761719 8.761719 4.832031 0 8.757812-3.929687 8.757812-8.761719 0-4.832031-3.925781-8.765625-8.757812-8.765625zm0 0"/><path d="m43.105469 15.695312c0 5.832032-4.726563 10.558594-10.558594 10.558594s-10.558594-4.726562-10.558594-10.558594c0-5.832031 4.726563-10.558593 10.558594-10.558593s10.558594 4.726562 10.558594 10.558593zm0 0"/><path d="m377.613281 370.679688c0 5.832031-4.726562 10.558593-10.558593 10.558593-5.832032 0-10.558594-4.726562-10.558594-10.558593 0-5.832032 4.726562-10.558594 10.558594-10.558594 5.832031 0 10.558593 4.726562 10.558593 10.558594zm0 0"/><path d="m6.828125 399.8125c-1.746094 0-3.496094-.667969-4.828125-2-2.664062-2.664062-2.664062-6.988281 0-9.652344l24.136719-24.132812c2.664062-2.667969 6.984375-2.667969 9.652343 0 2.664063 2.664062 2.664063 6.984375 0 9.652344l-24.136718 24.132812c-1.332032 1.335938-3.078125 2-4.824219 2zm0 0"/><path d="m30.960938 399.8125c-1.746094 0-3.496094-.667969-4.828126-2l-24.132812-24.132812c-2.667969-2.667969-2.667969-6.988282 0-9.652344 2.664062-2.667969 6.988281-2.667969 9.652344 0l24.132812 24.132812c2.667969 2.664063 2.667969 6.988282 0 9.652344-1.332031 1.335938-3.078125 2-4.824218 2zm0 0"/><path d="m375.46875 38c-1.746094 0-3.496094-.667969-4.828125-2-2.664063-2.664062-2.664063-6.988281 0-9.652344l24.132813-24.132812c2.667968-2.667969 6.988281-2.667969 9.65625 0 2.664062 2.664062 2.664062 6.984375 0 9.652344l-24.136719 24.132812c-1.332031 1.335938-3.078125 2-4.824219 2zm0 0"/><path d="m399.601562 38c-1.746093 0-3.496093-.667969-4.828124-2l-24.132813-24.132812c-2.667969-2.667969-2.667969-6.988282 0-9.652344 2.664063-2.667969 6.984375-2.667969 9.652344 0l24.132812 24.132812c2.667969 2.664063 2.667969 6.988282 0 9.652344-1.332031 1.335938-3.078125 2-4.824219 2zm0 0"/></g></svg>